Coordinates
version=1
nRows=8
nColumns=40
inDegrees=yes

Units are S.I. units (second, meters, Newtons, ...)
If the header above contains a line with 'inDegrees', this indicates whether rotational values are in degrees (yes) or radians (no).

endheader
time	pelvis_tilt	pelvis_list	pelvis_rotation	pelvis_tx	pelvis_ty	pelvis_tz	hip_flexion_r	hip_adduction_r	hip_rotation_r	knee_angle_r	knee_angle_r_beta	ankle_angle_r	subtalar_angle_r	mtp_angle_r	hip_flexion_l	hip_adduction_l	hip_rotation_l	knee_angle_l	knee_angle_l_beta	ankle_angle_l	subtalar_angle_l	mtp_angle_l	lumbar_extension	lumbar_bending	lumbar_rotation	arm_flex_r	arm_add_r	arm_rot_r	elbow_flex_r	pro_sup_r	wrist_flex_r	wrist_dev_r	arm_flex_l	arm_add_l	arm_rot_l	elbow_flex_l	pro_sup_l	wrist_flex_l	wrist_dev_l
      2.20000000	     -1.58008637	      7.25545653	    -88.03349968	      0.25777820	      0.93195953	      0.24212242	     18.53265806	      6.01962538	     -9.47804667	     15.30180428	      0.26706687	      2.62453101	      0.00000000	      0.00000000	     20.35563284	     -4.59285160	      2.09064591	     58.62568680	      1.02321126	     -3.35864157	      0.00000000	      0.00000000	      2.30542664	      1.91154306	     -3.89062649	      0.00000000	      0.00000000	      0.00000000	      0.00000000	      0.00000000	      0.00000000	      0.00000000	      0.00000000	      0.00000000	      0.00000000	      0.00000000	      0.00000000	      0.00000000	      0.00000000
      2.21000000	     -1.63456787	      7.27810462	    -88.24515320	      0.25697372	      0.93272174	      0.24909868	     17.79517738	      6.27862526	     -9.01913655	     14.77332614	      0.25784318	      2.73623064	      0.00000000	      0.00000000	     21.41145079	     -4.72875525	      2.10517728	     58.46909138	      1.02047816	     -2.23310452	      0.00000000	      0.00000000	      2.31010864	      2.02540143	     -3.66104754	      0.00000000	      0.00000000	      0.00000000	      0.00000000	      0.00000000	      0.00000000	      0.00000000	      0.00000000	      0.00000000	      0.00000000	      0.00000000	      0.00000000	      0.00000000	      0.00000000
      2.22000000	     -1.57793917	      7.27299715	    -88.41953415	      0.25630928	      0.93347287	      0.25594310	     17.09982554	      6.35410787	     -8.81041518	     14.37996273	      0.25097770	      2.86951496	      0.00000000	      0.00000000	     22.39289724	     -4.73692248	      2.05877012	     58.08174590	      1.01371770	     -1.51167139	      0.00000000	      0.00000000	      2.26142328	      2.00190884	     -3.43029257	      0.00000000	      0.00000000	      0.00000000	      0.00000000	      0.00000000	      0.00000000	      0.00000000	      0.00000000	      0.00000000	      0.00000000	      0.00000000	      0.00000000	      0.00000000	      0.00000000
      2.23000000	     -1.49516361	      7.29846498	    -88.58980913	      0.25565385	      0.93410675	      0.26273277	     16.47351816	      6.38460076	     -8.63942107	     14.05626054	      0.24532803	      3.05088607	      0.00000000	      0.00000000	     23.34284160	     -4.68989399	      2.01227889	     57.47429757	      1.00311573	     -0.85930191	      0.00000000	      0.00000000	      2.25177343	      1.93694778	     -3.21677399	      0.00000000	      0.00000000	      0.00000000	      0.00000000	      0.00000000	      0.00000000	      0.00000000	      0.00000000	      0.00000000	      0.00000000	      0.00000000	      0.00000000	      0.00000000	      0.00000000
      2.24000000	     -1.44949631	      7.24614548	    -88.76151580	      0.25508029	      0.93480070	      0.26948302	     15.71380297	      6.46536030	     -8.38546422	     13.62485024	      0.23779850	      3.14612915	      0.00000000	      0.00000000	     24.15042418	     -4.66834094	      1.94869383	     56.66764667	      0.98903701	     -0.25126291	      0.00000000	      0.00000000	      2.14227613	      1.92538522	     -2.98919828	      0.00000000	      0.00000000	      0.00000000	      0.00000000	      0.00000000	      0.00000000	      0.00000000	      0.00000000	      0.00000000	      0.00000000	      0.00000000	      0.00000000	      0.00000000	      0.00000000
      2.25000000	     -1.35272295	      7.34612747	    -88.90470287	      0.25459478	      0.93518817	      0.27609405	     15.22227011	      6.44253741	     -8.27068377	     13.38876232	      0.23367799	      3.40313643	      0.00000000	     -0.00000000	     25.08007768	     -4.54593808	      1.90662791	     55.68758808	      0.97193176	      0.24123027	      0.00000000	      0.00000000	      2.21045735	      1.84820950	     -2.80642415	     -0.00000000	     -0.00000000	      0.00000000	      0.00000000	      0.00000000	     -0.00000000	      0.00000000	      0.00000000	      0.00000000	      0.00000000	      0.00000000	      0.00000000	     -0.00000000	      0.00000000
      2.26000000	     -1.30406328	      7.26152409	    -89.06428061	      0.25408621	      0.93580806	      0.28277601	     14.45369836	      6.50924809	     -7.98208352	     13.00159590	      0.22692066	      3.47643635	      0.00000000	     -0.00000000	     25.71447445	     -4.47766613	      1.84654862	     54.47979042	      0.95085172	      0.64488803	      0.00000000	      0.00000000	      2.05607718	      1.83482240	     -2.61833153	      0.00000000	     -0.00000000	      0.00000000	      0.00000000	      0.00000000	      0.00000000	      0.00000000	      0.00000000	     -0.00000000	     -0.00000000	      0.00000000	      0.00000000	      0.00000000	     -0.00000000
      2.27000000	     -1.35679910	      7.39454783	    -89.15360221	      0.25368446	      0.93590707	      0.28923108	     14.13030527	      6.59177692	     -8.08343502	     12.99941112	      0.22688252	      3.66626494	      0.00000000	      0.00000000	     26.60836990	     -4.46431174	      1.88833707	     53.20753517	      0.92864668	      0.90747412	      0.00000000	      0.00000000	      2.14897207	      1.93429126	     -2.53853682	      0.00000000	      0.00000000	      0.00000000	      0.00000000	      0.00000000	      0.00000000	      0.00000000	      0.00000000	      0.00000000	      0.00000000	      0.00000000	      0.00000000	      0.00000000	      0.00000000
